<mxfile host="Electron" modified="2023-05-27T19:21:48.088Z" agent="Mozilla/5.0 (Windows NT 10.0; Win64; x64) AppleWebKit/537.36 (KHTML, like Gecko) draw.io/21.2.8 Chrome/112.0.5615.165 Electron/24.2.0 Safari/537.36" etag="kRnXO3-1ZkBioiW9iDej" version="21.2.8" type="device">
  <diagram name="ページ1" id="ODrPmbd-owSrHWYyJO7F">
    <mxGraphModel dx="3322" dy="965" grid="1" gridSize="10" guides="1" tooltips="1" connect="1" arrows="1" fold="1" page="1" pageScale="1" pageWidth="827" pageHeight="1169" math="0" shadow="0">
      <root>
        <mxCell id="0" />
        <mxCell id="1" parent="0" />
        <mxCell id="4ESrfmdc0MQb4VluyIVh-58" value="" style="rounded=0;whiteSpace=wrap;html=1;movable=0;resizable=0;rotatable=0;deletable=0;editable=0;locked=1;connectable=0;" parent="1" vertex="1">
          <mxGeometry x="-800" y="440" width="770" height="310" as="geometry" />
        </mxCell>
        <mxCell id="4ESrfmdc0MQb4VluyIVh-57" value="" style="rounded=0;whiteSpace=wrap;html=1;" parent="1" vertex="1">
          <mxGeometry x="-800" y="40" width="770" height="360" as="geometry" />
        </mxCell>
        <mxCell id="4ESrfmdc0MQb4VluyIVh-2" value="" style="rounded=0;whiteSpace=wrap;html=1;" parent="1" vertex="1">
          <mxGeometry x="-430" y="60" width="180" height="320" as="geometry" />
        </mxCell>
        <mxCell id="4ESrfmdc0MQb4VluyIVh-1" value="BNO055" style="rounded=0;whiteSpace=wrap;html=1;" parent="1" vertex="1">
          <mxGeometry x="-670" y="80" width="80" height="40" as="geometry" />
        </mxCell>
        <mxCell id="4ESrfmdc0MQb4VluyIVh-3" value="" style="endArrow=blockThin;html=1;rounded=0;fillColor=#fff2cc;strokeColor=#d6b656;strokeWidth=3;endFill=1;" parent="1" edge="1">
          <mxGeometry width="50" height="50" relative="1" as="geometry">
            <mxPoint x="-590" y="100" as="sourcePoint" />
            <mxPoint x="-430" y="100" as="targetPoint" />
          </mxGeometry>
        </mxCell>
        <mxCell id="4ESrfmdc0MQb4VluyIVh-5" value="&lt;ul style=&quot;font-size: 10px;&quot;&gt;&lt;li style=&quot;font-size: 10px;&quot;&gt;地磁気（20Hz）&lt;/li&gt;&lt;li style=&quot;font-size: 10px;&quot;&gt;加速度（100Hz）&lt;/li&gt;&lt;li style=&quot;font-size: 10px;&quot;&gt;ジャイロ（100Hz）&lt;/li&gt;&lt;li style=&quot;font-size: 10px;&quot;&gt;クオータニオン（100Hz）&lt;/li&gt;&lt;li style=&quot;font-size: 10px;&quot;&gt;姿勢角（100Hz）&lt;/li&gt;&lt;li style=&quot;font-size: 10px;&quot;&gt;線形加速度（100Hz）&lt;/li&gt;&lt;li style=&quot;font-size: 10px;&quot;&gt;重力（100Hz）&lt;/li&gt;&lt;/ul&gt;" style="text;html=1;strokeColor=none;fillColor=none;align=left;verticalAlign=top;whiteSpace=wrap;rounded=0;fontSize=10;labelPosition=right;verticalLabelPosition=bottom;" parent="1" vertex="1">
          <mxGeometry x="-780" y="70" width="175" height="20" as="geometry" />
        </mxCell>
        <mxCell id="4ESrfmdc0MQb4VluyIVh-6" value="BME280" style="rounded=0;whiteSpace=wrap;html=1;" parent="1" vertex="1">
          <mxGeometry x="-670" y="220" width="80" height="40" as="geometry" />
        </mxCell>
        <mxCell id="4ESrfmdc0MQb4VluyIVh-7" value="" style="endArrow=blockThin;html=1;rounded=0;fillColor=#fff2cc;strokeColor=#d6b656;strokeWidth=3;endFill=1;" parent="1" edge="1">
          <mxGeometry width="50" height="50" relative="1" as="geometry">
            <mxPoint x="-590" y="239.8" as="sourcePoint" />
            <mxPoint x="-430" y="240" as="targetPoint" />
          </mxGeometry>
        </mxCell>
        <mxCell id="4ESrfmdc0MQb4VluyIVh-8" value="&lt;ul style=&quot;font-size: 10px;&quot;&gt;&lt;li style=&quot;font-size: 10px;&quot;&gt;気圧（100Hz）&lt;/li&gt;&lt;/ul&gt;" style="text;html=1;strokeColor=none;fillColor=none;align=left;verticalAlign=top;whiteSpace=wrap;rounded=0;fontSize=10;labelPosition=right;verticalLabelPosition=bottom;" parent="1" vertex="1">
          <mxGeometry x="-780" y="210" width="175" height="20" as="geometry" />
        </mxCell>
        <mxCell id="4ESrfmdc0MQb4VluyIVh-10" value="" style="rounded=0;whiteSpace=wrap;html=1;" parent="1" vertex="1">
          <mxGeometry x="-130" y="70" width="80" height="40" as="geometry" />
        </mxCell>
        <mxCell id="4ESrfmdc0MQb4VluyIVh-9" value="FRAM" style="rounded=0;whiteSpace=wrap;html=1;" parent="1" vertex="1">
          <mxGeometry x="-120" y="80" width="80" height="40" as="geometry" />
        </mxCell>
        <mxCell id="4ESrfmdc0MQb4VluyIVh-11" value="" style="endArrow=blockThin;html=1;rounded=0;fillColor=#d5e8d4;strokeColor=#82b366;strokeWidth=3;endFill=1;entryX=0;entryY=0.5;entryDx=0;entryDy=0;" parent="1" target="4ESrfmdc0MQb4VluyIVh-9" edge="1">
          <mxGeometry width="50" height="50" relative="1" as="geometry">
            <mxPoint x="-250" y="99.72000000000003" as="sourcePoint" />
            <mxPoint x="-150" y="100" as="targetPoint" />
            <Array as="points">
              <mxPoint x="-150" y="100" />
            </Array>
          </mxGeometry>
        </mxCell>
        <mxCell id="4ESrfmdc0MQb4VluyIVh-12" value="SD" style="rounded=0;whiteSpace=wrap;html=1;" parent="1" vertex="1">
          <mxGeometry x="-120" y="140" width="80" height="40" as="geometry" />
        </mxCell>
        <mxCell id="4ESrfmdc0MQb4VluyIVh-13" value="" style="endArrow=blockThin;html=1;rounded=0;fillColor=#d5e8d4;strokeColor=#82b366;strokeWidth=3;endFill=1;entryX=0;entryY=0.5;entryDx=0;entryDy=0;" parent="1" target="4ESrfmdc0MQb4VluyIVh-12" edge="1">
          <mxGeometry width="50" height="50" relative="1" as="geometry">
            <mxPoint x="-150" y="100" as="sourcePoint" />
            <mxPoint x="-150" y="160.07999999999998" as="targetPoint" />
            <Array as="points">
              <mxPoint x="-150" y="160" />
            </Array>
          </mxGeometry>
        </mxCell>
        <mxCell id="4ESrfmdc0MQb4VluyIVh-14" value="ADC" style="rounded=0;whiteSpace=wrap;html=1;" parent="1" vertex="1">
          <mxGeometry x="-670" y="320" width="80" height="40" as="geometry" />
        </mxCell>
        <mxCell id="4ESrfmdc0MQb4VluyIVh-15" value="サーミスタ" style="rounded=0;whiteSpace=wrap;html=1;" parent="1" vertex="1">
          <mxGeometry x="-750" y="320" width="80" height="40" as="geometry" />
        </mxCell>
        <mxCell id="4ESrfmdc0MQb4VluyIVh-16" value="" style="endArrow=blockThin;html=1;rounded=0;fillColor=#f8cecc;strokeColor=#b85450;strokeWidth=3;endFill=1;" parent="1" edge="1">
          <mxGeometry width="50" height="50" relative="1" as="geometry">
            <mxPoint x="-590" y="339.71000000000004" as="sourcePoint" />
            <mxPoint x="-430" y="340" as="targetPoint" />
          </mxGeometry>
        </mxCell>
        <mxCell id="4ESrfmdc0MQb4VluyIVh-17" value="&lt;ul style=&quot;font-size: 10px;&quot;&gt;&lt;li style=&quot;font-size: 10px;&quot;&gt;気温（2Hz）&lt;/li&gt;&lt;/ul&gt;" style="text;html=1;strokeColor=none;fillColor=none;align=left;verticalAlign=top;whiteSpace=wrap;rounded=0;fontSize=10;labelPosition=right;verticalLabelPosition=bottom;" parent="1" vertex="1">
          <mxGeometry x="-780" y="310" width="175" height="20" as="geometry" />
        </mxCell>
        <mxCell id="4ESrfmdc0MQb4VluyIVh-19" value="I2C 8.72kbps" style="text;html=1;strokeColor=none;fillColor=none;align=left;verticalAlign=bottom;whiteSpace=wrap;rounded=0;fontSize=14;labelPosition=right;verticalLabelPosition=top;" parent="1" vertex="1">
          <mxGeometry x="-738" y="100" width="175" height="20" as="geometry" />
        </mxCell>
        <mxCell id="4ESrfmdc0MQb4VluyIVh-20" value="I2C 1.6kbps" style="text;html=1;strokeColor=none;fillColor=none;align=left;verticalAlign=bottom;whiteSpace=wrap;rounded=0;fontSize=14;labelPosition=right;verticalLabelPosition=top;" parent="1" vertex="1">
          <mxGeometry x="-738" y="240" width="175" height="20" as="geometry" />
        </mxCell>
        <mxCell id="4ESrfmdc0MQb4VluyIVh-21" value="Analog" style="text;html=1;strokeColor=none;fillColor=none;align=left;verticalAlign=bottom;whiteSpace=wrap;rounded=0;fontSize=14;labelPosition=right;verticalLabelPosition=top;" parent="1" vertex="1">
          <mxGeometry x="-738" y="340" width="175" height="20" as="geometry" />
        </mxCell>
        <mxCell id="4ESrfmdc0MQb4VluyIVh-23" value="" style="endArrow=none;html=1;rounded=0;strokeWidth=3;endFill=0;entryX=0.5;entryY=0;entryDx=0;entryDy=0;" parent="1" target="4ESrfmdc0MQb4VluyIVh-25" edge="1">
          <mxGeometry width="50" height="50" relative="1" as="geometry">
            <mxPoint x="-430" y="100" as="sourcePoint" />
            <mxPoint x="-350" y="100" as="targetPoint" />
            <Array as="points">
              <mxPoint x="-350" y="100" />
            </Array>
          </mxGeometry>
        </mxCell>
        <mxCell id="4ESrfmdc0MQb4VluyIVh-25" value="算出" style="rounded=0;whiteSpace=wrap;html=1;" parent="1" vertex="1">
          <mxGeometry x="-370" y="120" width="40" height="20" as="geometry" />
        </mxCell>
        <mxCell id="4ESrfmdc0MQb4VluyIVh-30" value="" style="endArrow=none;html=1;rounded=0;strokeWidth=3;startArrow=classic;startFill=1;entryX=0.5;entryY=1;entryDx=0;entryDy=0;exitX=0.75;exitY=0;exitDx=0;exitDy=0;" parent="1" source="4ESrfmdc0MQb4VluyIVh-32" target="4ESrfmdc0MQb4VluyIVh-25" edge="1">
          <mxGeometry width="50" height="50" relative="1" as="geometry">
            <mxPoint x="-270" y="160" as="sourcePoint" />
            <mxPoint x="-330" y="140" as="targetPoint" />
            <Array as="points">
              <mxPoint x="-350" y="160" />
            </Array>
          </mxGeometry>
        </mxCell>
        <mxCell id="4ESrfmdc0MQb4VluyIVh-31" value="&lt;ul style=&quot;font-size: 10px;&quot;&gt;&lt;li style=&quot;font-size: 10px;&quot;&gt;速度（100Hz）&lt;/li&gt;&lt;li style=&quot;font-size: 10px;&quot;&gt;高度（100Hz）&lt;/li&gt;&lt;/ul&gt;" style="text;html=1;strokeColor=none;fillColor=none;align=left;verticalAlign=top;whiteSpace=wrap;rounded=0;fontSize=10;labelPosition=right;verticalLabelPosition=bottom;" parent="1" vertex="1">
          <mxGeometry x="-563" y="130" width="175" height="20" as="geometry" />
        </mxCell>
        <mxCell id="4ESrfmdc0MQb4VluyIVh-32" value="1.6kbps" style="text;html=1;strokeColor=none;fillColor=none;align=left;verticalAlign=bottom;whiteSpace=wrap;rounded=0;fontSize=14;labelPosition=right;verticalLabelPosition=top;" parent="1" vertex="1">
          <mxGeometry x="-520" y="160" width="175" height="20" as="geometry" />
        </mxCell>
        <mxCell id="4ESrfmdc0MQb4VluyIVh-33" value="" style="endArrow=none;html=1;rounded=0;strokeWidth=3;" parent="1" edge="1">
          <mxGeometry width="50" height="50" relative="1" as="geometry">
            <mxPoint x="-430" y="240" as="sourcePoint" />
            <mxPoint x="-390" y="100" as="targetPoint" />
            <Array as="points">
              <mxPoint x="-390" y="240" />
            </Array>
          </mxGeometry>
        </mxCell>
        <mxCell id="4ESrfmdc0MQb4VluyIVh-34" value="" style="endArrow=none;html=1;rounded=0;strokeWidth=3;" parent="1" edge="1">
          <mxGeometry width="50" height="50" relative="1" as="geometry">
            <mxPoint x="-430" y="340" as="sourcePoint" />
            <mxPoint x="-390" y="240" as="targetPoint" />
            <Array as="points">
              <mxPoint x="-390" y="340" />
            </Array>
          </mxGeometry>
        </mxCell>
        <mxCell id="4ESrfmdc0MQb4VluyIVh-36" value="I2C 1.6kbps" style="text;html=1;strokeColor=none;fillColor=none;align=left;verticalAlign=bottom;whiteSpace=wrap;rounded=0;fontSize=14;labelPosition=right;verticalLabelPosition=top;" parent="1" vertex="1">
          <mxGeometry x="-738" y="240" width="175" height="20" as="geometry" />
        </mxCell>
        <mxCell id="4ESrfmdc0MQb4VluyIVh-38" value="SPI 12.72kbps" style="text;html=1;strokeColor=none;fillColor=none;align=left;verticalAlign=bottom;whiteSpace=wrap;rounded=0;fontSize=14;labelPosition=right;verticalLabelPosition=top;" parent="1" vertex="1">
          <mxGeometry x="-414" y="100" width="175" height="20" as="geometry" />
        </mxCell>
        <mxCell id="4ESrfmdc0MQb4VluyIVh-39" value="381.6kb (30sec)" style="text;html=1;strokeColor=none;fillColor=none;align=center;verticalAlign=middle;whiteSpace=wrap;rounded=0;" parent="1" vertex="1">
          <mxGeometry x="-135" y="120" width="110" height="20" as="geometry" />
        </mxCell>
        <mxCell id="4ESrfmdc0MQb4VluyIVh-40" value="" style="endArrow=classic;html=1;rounded=0;strokeWidth=3;endFill=1;" parent="1" edge="1">
          <mxGeometry width="50" height="50" relative="1" as="geometry">
            <mxPoint x="-290" y="250" as="sourcePoint" />
            <mxPoint x="-250" y="220" as="targetPoint" />
            <Array as="points">
              <mxPoint x="-270" y="250" />
              <mxPoint x="-270" y="220" />
            </Array>
          </mxGeometry>
        </mxCell>
        <mxCell id="4ESrfmdc0MQb4VluyIVh-41" value="" style="endArrow=classic;html=1;rounded=0;fillColor=#dae8fc;strokeColor=#6c8ebf;strokeWidth=3;endFill=1;" parent="1" edge="1">
          <mxGeometry width="50" height="50" relative="1" as="geometry">
            <mxPoint x="-250" y="220" as="sourcePoint" />
            <mxPoint y="220" as="targetPoint" />
          </mxGeometry>
        </mxCell>
        <mxCell id="4ESrfmdc0MQb4VluyIVh-45" value="&lt;ul style=&quot;font-size: 10px;&quot;&gt;&lt;li style=&quot;font-size: 10px;&quot;&gt;全計測データ&lt;/li&gt;&lt;/ul&gt;" style="text;html=1;strokeColor=none;fillColor=none;align=left;verticalAlign=top;whiteSpace=wrap;rounded=0;fontSize=10;labelPosition=right;verticalLabelPosition=bottom;" parent="1" vertex="1">
          <mxGeometry x="-437.5" y="70" width="175" height="20" as="geometry" />
        </mxCell>
        <mxCell id="4ESrfmdc0MQb4VluyIVh-46" value="&lt;ul style=&quot;font-size: 10px;&quot;&gt;&lt;li style=&quot;font-size: 10px;&quot;&gt;姿勢角（100Hz）&lt;/li&gt;&lt;li style=&quot;font-size: 10px;&quot;&gt;線形加速度（100Hz）&lt;/li&gt;&lt;li style=&quot;font-size: 10px;&quot;&gt;速度（100Hz）&lt;/li&gt;&lt;li style=&quot;font-size: 10px;&quot;&gt;高度（100Hz）&lt;/li&gt;&lt;/ul&gt;" style="text;html=1;strokeColor=none;fillColor=none;align=left;verticalAlign=top;whiteSpace=wrap;rounded=0;fontSize=10;labelPosition=right;verticalLabelPosition=bottom;" parent="1" vertex="1">
          <mxGeometry x="-427.5" y="190" width="175" height="20" as="geometry" />
        </mxCell>
        <mxCell id="4ESrfmdc0MQb4VluyIVh-47" value="" style="endArrow=none;html=1;rounded=0;fillColor=#dae8fc;strokeColor=#6c8ebf;strokeWidth=3;endFill=0;shape=link;targetPerimeterSpacing=0;width=14.838709677419352;" parent="1" edge="1">
          <mxGeometry width="50" height="50" relative="1" as="geometry">
            <mxPoint x="10" y="20" as="sourcePoint" />
            <mxPoint x="10" y="770" as="targetPoint" />
          </mxGeometry>
        </mxCell>
        <mxCell id="4ESrfmdc0MQb4VluyIVh-89" value="CAN-BUS" style="edgeLabel;html=1;align=center;verticalAlign=middle;resizable=0;points=[];fontSize=32;fontFamily=Helvetica;fontColor=default;horizontal=0;" parent="4ESrfmdc0MQb4VluyIVh-47" vertex="1" connectable="0">
          <mxGeometry x="0.048" y="6" relative="1" as="geometry">
            <mxPoint x="24" y="7" as="offset" />
          </mxGeometry>
        </mxCell>
        <mxCell id="4ESrfmdc0MQb4VluyIVh-48" value="" style="endArrow=none;html=1;rounded=0;fillColor=#dae8fc;strokeColor=#6c8ebf;strokeWidth=3;endFill=0;startArrow=classic;startFill=1;" parent="1" edge="1">
          <mxGeometry width="50" height="50" relative="1" as="geometry">
            <mxPoint x="-250" y="339.31" as="sourcePoint" />
            <mxPoint y="339.31" as="targetPoint" />
          </mxGeometry>
        </mxCell>
        <mxCell id="4ESrfmdc0MQb4VluyIVh-49" value="" style="endArrow=none;html=1;rounded=0;strokeWidth=3;endFill=0;" parent="1" edge="1">
          <mxGeometry width="50" height="50" relative="1" as="geometry">
            <mxPoint x="-270" y="339.66999999999996" as="sourcePoint" />
            <mxPoint x="-250" y="339.66999999999996" as="targetPoint" />
          </mxGeometry>
        </mxCell>
        <mxCell id="4ESrfmdc0MQb4VluyIVh-50" value="&lt;ul style=&quot;font-size: 10px;&quot;&gt;&lt;li style=&quot;font-size: 10px;&quot;&gt;フライトモード（100Hz）&lt;/li&gt;&lt;/ul&gt;" style="text;html=1;strokeColor=none;fillColor=none;align=left;verticalAlign=top;whiteSpace=wrap;rounded=0;fontSize=10;labelPosition=right;verticalLabelPosition=bottom;" parent="1" vertex="1">
          <mxGeometry x="-425" y="310" width="175" height="20" as="geometry" />
        </mxCell>
        <mxCell id="4ESrfmdc0MQb4VluyIVh-51" value="データ出力&lt;br&gt;実行判定" style="rounded=0;whiteSpace=wrap;html=1;" parent="1" vertex="1">
          <mxGeometry x="-350" y="325" width="80" height="30" as="geometry" />
        </mxCell>
        <mxCell id="4ESrfmdc0MQb4VluyIVh-54" value="" style="endArrow=classic;html=1;rounded=0;strokeWidth=3;endFill=1;entryX=0.202;entryY=0.247;entryDx=0;entryDy=0;entryPerimeter=0;" parent="1" target="4ESrfmdc0MQb4VluyIVh-53" edge="1">
          <mxGeometry width="50" height="50" relative="1" as="geometry">
            <mxPoint x="-390" y="240" as="sourcePoint" />
            <mxPoint x="-330" y="240" as="targetPoint" />
          </mxGeometry>
        </mxCell>
        <mxCell id="4ESrfmdc0MQb4VluyIVh-53" value="" style="verticalLabelPosition=bottom;shadow=0;dashed=0;align=center;html=1;verticalAlign=top;shape=mxgraph.electrical.logic_gates.logic_gate;operation=and;" parent="1" vertex="1">
          <mxGeometry x="-350" y="230" width="80" height="40" as="geometry" />
        </mxCell>
        <mxCell id="4ESrfmdc0MQb4VluyIVh-55" value="" style="endArrow=none;html=1;rounded=0;exitX=0.5;exitY=0;exitDx=0;exitDy=0;" parent="1" source="4ESrfmdc0MQb4VluyIVh-51" edge="1">
          <mxGeometry width="50" height="50" relative="1" as="geometry">
            <mxPoint x="-400" y="310" as="sourcePoint" />
            <mxPoint x="-350" y="260" as="targetPoint" />
            <Array as="points">
              <mxPoint x="-310" y="300" />
              <mxPoint x="-350" y="300" />
            </Array>
          </mxGeometry>
        </mxCell>
        <mxCell id="4ESrfmdc0MQb4VluyIVh-56" value="" style="endArrow=classic;html=1;rounded=0;strokeWidth=3;endFill=1;" parent="1" edge="1">
          <mxGeometry width="50" height="50" relative="1" as="geometry">
            <mxPoint x="-270" y="220" as="sourcePoint" />
            <mxPoint x="-250" y="100" as="targetPoint" />
            <Array as="points">
              <mxPoint x="-270" y="100" />
            </Array>
          </mxGeometry>
        </mxCell>
        <mxCell id="4ESrfmdc0MQb4VluyIVh-59" value="" style="rounded=0;whiteSpace=wrap;html=1;movable=0;resizable=0;rotatable=0;deletable=0;editable=0;locked=1;connectable=0;" parent="1" vertex="1">
          <mxGeometry x="-580" y="460" width="330" height="270" as="geometry" />
        </mxCell>
        <mxCell id="4ESrfmdc0MQb4VluyIVh-60" value="" style="endArrow=none;html=1;rounded=0;fillColor=#dae8fc;strokeColor=#6c8ebf;strokeWidth=3;endFill=0;startArrow=classic;startFill=1;" parent="1" edge="1">
          <mxGeometry width="50" height="50" relative="1" as="geometry">
            <mxPoint x="-252" y="680" as="sourcePoint" />
            <mxPoint x="0.5" y="680" as="targetPoint" />
          </mxGeometry>
        </mxCell>
        <mxCell id="4ESrfmdc0MQb4VluyIVh-61" value="&lt;ul style=&quot;font-size: 10px;&quot;&gt;&lt;li style=&quot;font-size: 10px;&quot;&gt;高度（100Hz）&lt;/li&gt;&lt;li style=&quot;font-size: 10px;&quot;&gt;線形加速度（100Hz）&lt;/li&gt;&lt;/ul&gt;" style="text;html=1;strokeColor=none;fillColor=none;align=left;verticalAlign=top;whiteSpace=wrap;rounded=0;fontSize=10;labelPosition=right;verticalLabelPosition=bottom;" parent="1" vertex="1">
          <mxGeometry x="-425" y="650" width="175" height="20" as="geometry" />
        </mxCell>
        <mxCell id="4ESrfmdc0MQb4VluyIVh-62" value="フライトモード&lt;br&gt;管理" style="rounded=0;whiteSpace=wrap;html=1;" parent="1" vertex="1">
          <mxGeometry x="-397.5" y="660" width="95" height="40" as="geometry" />
        </mxCell>
        <mxCell id="4ESrfmdc0MQb4VluyIVh-63" value="" style="endArrow=none;html=1;rounded=0;strokeWidth=3;endFill=0;startArrow=classic;startFill=1;exitX=1;exitY=0.5;exitDx=0;exitDy=0;" parent="1" source="4ESrfmdc0MQb4VluyIVh-62" edge="1">
          <mxGeometry width="50" height="50" relative="1" as="geometry">
            <mxPoint x="-290" y="680" as="sourcePoint" />
            <mxPoint x="-250" y="680" as="targetPoint" />
            <Array as="points" />
          </mxGeometry>
        </mxCell>
        <mxCell id="4ESrfmdc0MQb4VluyIVh-64" value="FRAM" style="rounded=0;whiteSpace=wrap;html=1;" parent="1" vertex="1">
          <mxGeometry x="-120" y="480" width="80" height="40" as="geometry" />
        </mxCell>
        <mxCell id="4ESrfmdc0MQb4VluyIVh-65" value="" style="endArrow=blockThin;html=1;rounded=0;fillColor=#d5e8d4;strokeColor=#82b366;strokeWidth=3;endFill=1;entryX=0;entryY=0.5;entryDx=0;entryDy=0;" parent="1" target="4ESrfmdc0MQb4VluyIVh-64" edge="1">
          <mxGeometry width="50" height="50" relative="1" as="geometry">
            <mxPoint x="-150" y="500" as="sourcePoint" />
            <mxPoint x="-150" y="500" as="targetPoint" />
            <Array as="points">
              <mxPoint x="-250" y="500" />
              <mxPoint x="-150" y="500" />
            </Array>
          </mxGeometry>
        </mxCell>
        <mxCell id="4ESrfmdc0MQb4VluyIVh-66" value="SPI 1.68kbps" style="text;html=1;strokeColor=none;fillColor=none;align=left;verticalAlign=bottom;whiteSpace=wrap;rounded=0;fontSize=14;labelPosition=right;verticalLabelPosition=top;" parent="1" vertex="1">
          <mxGeometry x="-420" y="500" width="175" height="20" as="geometry" />
        </mxCell>
        <mxCell id="4ESrfmdc0MQb4VluyIVh-67" value="&lt;ul style=&quot;font-size: 10px;&quot;&gt;&lt;li style=&quot;font-size: 10px;&quot;&gt;フライトモード（10Hz）&lt;/li&gt;&lt;li style=&quot;font-size: 10px;&quot;&gt;制御情報（10Hz）&lt;/li&gt;&lt;li style=&quot;font-size: 10px;&quot;&gt;電圧情報（10Hz）&lt;/li&gt;&lt;li style=&quot;font-size: 10px;&quot;&gt;イベント&lt;/li&gt;&lt;/ul&gt;" style="text;html=1;strokeColor=none;fillColor=none;align=left;verticalAlign=top;whiteSpace=wrap;rounded=0;fontSize=10;labelPosition=right;verticalLabelPosition=bottom;" parent="1" vertex="1">
          <mxGeometry x="-445" y="470" width="175" height="20" as="geometry" />
        </mxCell>
        <mxCell id="4ESrfmdc0MQb4VluyIVh-68" value="" style="endArrow=classic;html=1;rounded=0;fillColor=#dae8fc;strokeColor=#6c8ebf;strokeWidth=3;endFill=1;" parent="1" edge="1">
          <mxGeometry width="50" height="50" relative="1" as="geometry">
            <mxPoint x="-250" y="580" as="sourcePoint" />
            <mxPoint y="580" as="targetPoint" />
          </mxGeometry>
        </mxCell>
        <mxCell id="4ESrfmdc0MQb4VluyIVh-69" value="50.4kb (30sec)" style="text;html=1;strokeColor=none;fillColor=none;align=center;verticalAlign=middle;whiteSpace=wrap;rounded=0;" parent="1" vertex="1">
          <mxGeometry x="-130" y="520" width="110" height="20" as="geometry" />
        </mxCell>
        <mxCell id="4ESrfmdc0MQb4VluyIVh-70" value="&lt;ul style=&quot;font-size: 10px;&quot;&gt;&lt;li style=&quot;font-size: 10px;&quot;&gt;フライトモード（10Hz）&lt;/li&gt;&lt;li style=&quot;font-size: 10px;&quot;&gt;制御情報（2Hz）&lt;/li&gt;&lt;li style=&quot;font-size: 10px;&quot;&gt;電圧情報（2Hz）&lt;/li&gt;&lt;/ul&gt;" style="text;html=1;strokeColor=none;fillColor=none;align=left;verticalAlign=top;whiteSpace=wrap;rounded=0;fontSize=10;labelPosition=right;verticalLabelPosition=bottom;" parent="1" vertex="1">
          <mxGeometry x="-445" y="550" width="175" height="20" as="geometry" />
        </mxCell>
        <mxCell id="4ESrfmdc0MQb4VluyIVh-71" value="" style="endArrow=none;html=1;rounded=0;strokeWidth=3;endFill=0;startArrow=classic;startFill=1;" parent="1" edge="1">
          <mxGeometry width="50" height="50" relative="1" as="geometry">
            <mxPoint x="-250" y="500" as="sourcePoint" />
            <mxPoint x="-350" y="580" as="targetPoint" />
            <Array as="points">
              <mxPoint x="-350" y="500" />
            </Array>
          </mxGeometry>
        </mxCell>
        <mxCell id="4ESrfmdc0MQb4VluyIVh-72" value="" style="endArrow=none;html=1;rounded=0;strokeWidth=3;endFill=0;startArrow=classic;startFill=1;" parent="1" edge="1">
          <mxGeometry width="50" height="50" relative="1" as="geometry">
            <mxPoint x="-250" y="580" as="sourcePoint" />
            <mxPoint x="-350" y="580" as="targetPoint" />
            <Array as="points" />
          </mxGeometry>
        </mxCell>
        <mxCell id="4ESrfmdc0MQb4VluyIVh-74" value="" style="endArrow=none;html=1;rounded=0;strokeWidth=3;endFill=0;startArrow=classic;startFill=1;entryX=0.5;entryY=0;entryDx=0;entryDy=0;" parent="1" target="4ESrfmdc0MQb4VluyIVh-62" edge="1">
          <mxGeometry width="50" height="50" relative="1" as="geometry">
            <mxPoint x="-350" y="580" as="sourcePoint" />
            <mxPoint x="-340" y="620" as="targetPoint" />
            <Array as="points" />
          </mxGeometry>
        </mxCell>
        <mxCell id="4ESrfmdc0MQb4VluyIVh-75" value="0.64kbps" style="text;html=1;strokeColor=none;fillColor=none;align=left;verticalAlign=bottom;whiteSpace=wrap;rounded=0;fontSize=14;labelPosition=right;verticalLabelPosition=top;" parent="1" vertex="1">
          <mxGeometry x="-511.87" y="620" width="175" height="20" as="geometry" />
        </mxCell>
        <mxCell id="4ESrfmdc0MQb4VluyIVh-76" value="&lt;ul style=&quot;font-size: 10px;&quot;&gt;&lt;li style=&quot;font-size: 10px;&quot;&gt;フライトモード（10Hz）&lt;/li&gt;&lt;li style=&quot;font-size: 10px;&quot;&gt;イベント&lt;/li&gt;&lt;/ul&gt;" style="text;html=1;strokeColor=none;fillColor=none;align=left;verticalAlign=top;whiteSpace=wrap;rounded=0;fontSize=10;labelPosition=right;verticalLabelPosition=bottom;" parent="1" vertex="1">
          <mxGeometry x="-478.75" y="585" width="108.75" height="20" as="geometry" />
        </mxCell>
        <mxCell id="4ESrfmdc0MQb4VluyIVh-77" value="分離制御&lt;br&gt;カメラ制御" style="rounded=0;whiteSpace=wrap;html=1;" parent="1" vertex="1">
          <mxGeometry x="-540" y="660" width="95" height="40" as="geometry" />
        </mxCell>
        <mxCell id="4ESrfmdc0MQb4VluyIVh-78" value="" style="endArrow=none;html=1;rounded=0;strokeWidth=3;endFill=0;startArrow=classic;startFill=1;entryX=0.5;entryY=0;entryDx=0;entryDy=0;" parent="1" target="4ESrfmdc0MQb4VluyIVh-77" edge="1">
          <mxGeometry width="50" height="50" relative="1" as="geometry">
            <mxPoint x="-492" y="580" as="sourcePoint" />
            <mxPoint x="-482.5" y="660" as="targetPoint" />
            <Array as="points">
              <mxPoint x="-492" y="580" />
            </Array>
          </mxGeometry>
        </mxCell>
        <mxCell id="4ESrfmdc0MQb4VluyIVh-79" value="&lt;ul style=&quot;font-size: 10px;&quot;&gt;&lt;li style=&quot;font-size: 10px;&quot;&gt;制御情報（10Hz）&lt;/li&gt;&lt;li style=&quot;font-size: 10px;&quot;&gt;イベント&lt;/li&gt;&lt;/ul&gt;" style="text;html=1;strokeColor=none;fillColor=none;align=left;verticalAlign=top;whiteSpace=wrap;rounded=0;fontSize=10;labelPosition=right;verticalLabelPosition=bottom;" parent="1" vertex="1">
          <mxGeometry x="-620.62" y="585" width="108.75" height="20" as="geometry" />
        </mxCell>
        <mxCell id="4ESrfmdc0MQb4VluyIVh-80" value="0.32kbps" style="text;html=1;strokeColor=none;fillColor=none;align=left;verticalAlign=bottom;whiteSpace=wrap;rounded=0;fontSize=14;labelPosition=right;verticalLabelPosition=top;" parent="1" vertex="1">
          <mxGeometry x="-653.75" y="620" width="175" height="20" as="geometry" />
        </mxCell>
        <mxCell id="4ESrfmdc0MQb4VluyIVh-81" value="電圧監視" style="rounded=0;whiteSpace=wrap;html=1;" parent="1" vertex="1">
          <mxGeometry x="-760" y="480" width="80" height="40" as="geometry" />
        </mxCell>
        <mxCell id="4ESrfmdc0MQb4VluyIVh-82" value="ADC" style="rounded=0;whiteSpace=wrap;html=1;" parent="1" vertex="1">
          <mxGeometry x="-760" y="520" width="80" height="40" as="geometry" />
        </mxCell>
        <mxCell id="4ESrfmdc0MQb4VluyIVh-83" value="" style="endArrow=blockThin;html=1;rounded=0;fillColor=#f8cecc;strokeColor=#b85450;strokeWidth=3;endFill=1;" parent="1" edge="1">
          <mxGeometry width="50" height="50" relative="1" as="geometry">
            <mxPoint x="-720" y="560" as="sourcePoint" />
            <mxPoint x="-580" y="580.29" as="targetPoint" />
            <Array as="points">
              <mxPoint x="-720" y="580" />
            </Array>
          </mxGeometry>
        </mxCell>
        <mxCell id="4ESrfmdc0MQb4VluyIVh-84" value="&lt;ul style=&quot;font-size: 10px;&quot;&gt;&lt;li style=&quot;font-size: 10px;&quot;&gt;12V供給電圧（10Hz）&lt;/li&gt;&lt;li style=&quot;font-size: 10px;&quot;&gt;バッテリー電圧（10Hz）&lt;/li&gt;&lt;li style=&quot;font-size: 10px;&quot;&gt;プール電圧（10Hz）&lt;/li&gt;&lt;/ul&gt;" style="text;html=1;strokeColor=none;fillColor=none;align=left;verticalAlign=top;whiteSpace=wrap;rounded=0;fontSize=10;labelPosition=right;verticalLabelPosition=bottom;" parent="1" vertex="1">
          <mxGeometry x="-913" y="550" width="175" height="20" as="geometry" />
        </mxCell>
        <mxCell id="4ESrfmdc0MQb4VluyIVh-85" value="Analog" style="text;html=1;strokeColor=none;fillColor=none;align=left;verticalAlign=bottom;whiteSpace=wrap;rounded=0;fontSize=14;labelPosition=right;verticalLabelPosition=top;" parent="1" vertex="1">
          <mxGeometry x="-830" y="580" width="175" height="20" as="geometry" />
        </mxCell>
        <mxCell id="4ESrfmdc0MQb4VluyIVh-88" value="" style="endArrow=none;html=1;rounded=0;strokeWidth=3;endFill=0;startArrow=none;startFill=0;" parent="1" edge="1">
          <mxGeometry width="50" height="50" relative="1" as="geometry">
            <mxPoint x="-350" y="580" as="sourcePoint" />
            <mxPoint x="-580" y="580" as="targetPoint" />
            <Array as="points" />
          </mxGeometry>
        </mxCell>
        <mxCell id="q9ZYuqAZ2Tl45ADoygLm-1" value="フライトモジュール" style="text;html=1;strokeColor=none;fillColor=none;align=left;verticalAlign=middle;whiteSpace=wrap;rounded=0;fontSize=20;" vertex="1" parent="1">
          <mxGeometry x="-800" y="440" width="240" height="30" as="geometry" />
        </mxCell>
        <mxCell id="q9ZYuqAZ2Tl45ADoygLm-2" value="計測モジュール" style="text;html=1;strokeColor=none;fillColor=none;align=left;verticalAlign=middle;whiteSpace=wrap;rounded=0;fontSize=20;" vertex="1" parent="1">
          <mxGeometry x="-800" y="40" width="240" height="30" as="geometry" />
        </mxCell>
      </root>
    </mxGraphModel>
  </diagram>
</mxfile>
